<?xml version="1.0" encoding="utf-8"?>
<!-- Generator: Adobe Illustrator 18.0.0, SVG Export Plug-In . SVG Version: 6.00 Build 0)  -->
<!DOCTYPE svg PUBLIC "-//W3C//DTD SVG 1.1//EN" "http://www.w3.org/Graphics/SVG/1.1/DTD/svg11.dtd">
<svg version="1.1" id="Layer_1" xmlns="http://www.w3.org/2000/svg" xmlns:xlink="http://www.w3.org/1999/xlink" x="0px" y="0px"
	 viewBox="-29.3 227.3 1018 106" enable-background="new -29.3 227.3 1018 106" xml:space="preserve">
<g>
	<g>
		<path fill="#FFFFFF" d="M-29.3,259.8c2.8-1.4,6.9-2,10.4-2h8.4V321c0,3.1-0.8,6.7-3.2,9.3h38.2c-2.4-2.5-3.2-6.2-3.2-9.3v-63.2
			h8.4c3.5,0,7.6,0.6,10.4,2v-29.5h-69.4L-29.3,259.8L-29.3,259.8z M130.3,230.3H92.1c2.4,2.5,3.2,6.2,3.2,9.3v28.8H80.4v-28.8
			c0-3.1,0.8-6.7,3.2-9.3H45.4c2.4,2.5,3.2,6.2,3.2,9.3v81.5c0,3.1-0.8,6.7-3.2,9.3h38.2c-2.4-2.5-3.2-6.2-3.2-9.3v-28.5h14.9v28.5
			c0,3.1-0.8,6.7-3.2,9.3h38.2c-2.4-2.5-3.2-6.2-3.2-9.3v-81.5C127.1,236.5,127.9,232.8,130.3,230.3z M174.7,230.3h-38.2
			c2.4,2.5,3.2,6.2,3.2,9.3v81.5c0,3.1-0.8,6.7-3.2,9.3h38.2c-2.4-2.5-3.2-6.2-3.2-9.3v-81.5C171.5,236.5,172.4,232.8,174.7,230.3z
			 M228.9,270.2c-8.3-5.5-16.4-8.4-16.4-14c0-3.7,2.1-5.3,7.3-5.3s11.7,6.9,13.8,11.1v-32.7c-1.5,1.5-3.5,1.8-5.8,1.8
			c-2.1,0-8.4-2.9-13.9-2.9c-19,0-33.1,8.8-33.1,29.2c0,14,8.1,21.6,16.4,27.1c8.1,5.6,16.3,9.1,16.3,15.6c0,4.1-4.1,6.5-7.6,6.5
			c-9.6,0-18.1-8.7-24-15.6v40.6c2.5-1.3,4.9-1.8,8-1.8c5.2,0,11.7,2.9,18.4,2.9c20.5,0,36.9-10.7,36.9-32.7
			C245.2,283.7,237.1,275.7,228.9,270.2z M322.6,230.3h-38.2c2.4,2.5,3.2,6.2,3.2,9.3v81.5c0,3.1-0.8,6.7-3.2,9.3h38.2
			c-2.4-2.5-3.2-6.2-3.2-9.3v-81.5C319.4,236.5,320.2,232.8,322.6,230.3z M376.8,270.2c-8.3-5.5-16.4-8.4-16.4-14
			c0-3.7,2.1-5.3,7.3-5.3c5.2,0,11.7,6.9,13.8,11.1v-32.7c-1.5,1.5-3.5,1.8-5.8,1.8c-2.1,0-8.4-2.9-13.9-2.9
			c-19,0-33.1,8.8-33.1,29.2c0,14,8.1,21.6,16.4,27.1c8.1,5.6,16.3,9.1,16.3,15.6c0,4.1-4.1,6.5-7.6,6.5c-9.6,0-18.1-8.7-24-15.6
			v40.6c2.5-1.3,4.9-1.8,8-1.8c5.2,0,11.7,2.9,18.4,2.9c20.5,0,36.9-10.7,36.9-32.7C393.2,283.7,384.9,275.7,376.8,270.2z
			 M434.1,239.6v81.5c0,3.1-0.8,6.7-3.2,9.3H493v-30.2c-4.4,2-10.1,2.7-15.2,2.7h-13.3v-11.7h7.2c3.7,0,7.3,0.4,11,2v-26.7
			c-3.7,1.5-7.3,2-11,2h-7.2v-10.7h13.3c5.1,0,10.8,0.7,15.2,2.7v-30.2h-62.1C433.3,232.8,434.1,236.5,434.1,239.6z M534.8,302.8
			v-63.2c0-3.1,0.8-6.7,3.2-9.3h-38.2c2.4,2.5,3.2,6.2,3.2,9.3v81.5c0,3.1-0.8,6.7-3.2,9.3h56.9v-29.8c-3.8,2-8.7,2.2-13.1,2.2
			H534.8z M565.7,239.6v81.5c0,3.1-0.8,6.7-3.2,9.3h62.1v-30.2c-4.4,2-10.1,2.7-15.2,2.7h-13.3v-11.7h7.2c3.7,0,7.3,0.4,11,2v-26.7
			c-3.7,1.5-7.3,2-11,2h-7.2v-10.7h13.3c5.1,0,10.8,0.7,15.2,2.7v-30.2h-62.1C564.9,232.8,565.7,236.5,565.7,239.6z M680.4,228
			c-28.8,0-50.7,24-50.7,52.2c0,28.2,21.9,52.2,50.7,52.2c4.1,0,6.7-1.1,10.1-1.1c2.8,0,5.8,0.3,8.3,1.1v-40.5
			c-4.6,5.6-11.1,8.7-17.7,8.7c-11.7,0-19.7-9.1-19.7-20.2c0-11.1,8-20.8,19.7-20.8c6.6-0.1,13.1,2.9,17.7,7.9v-39.6
			c-2.5,0.8-5.5,1.1-8.3,1.1C687.2,229.2,684.5,228,680.4,228z M707.3,259.8c2.8-1.4,6.9-2,10.4-2h8.4V321c0,3.1-0.8,6.7-3.2,9.3
			h38.2c-2.4-2.5-3.2-6.2-3.2-9.3v-63.2h8.4c3.5,0,7.6,0.6,10.4,2v-29.5h-69.4V259.8z M849.2,285.2c5.3-5.9,8.8-14,8.8-21.9
			c0-23-17.6-35.3-39.2-35.3c-11.4,0-18.1,3.2-24.2,3.2c-3.7,0-6.7-1.3-9-3.2v93c0,3.1-0.8,6.7-3.2,9.3h38.2
			c-2.4-2.5-3.2-6.2-3.2-9.3v-19.9c11,2.2,19.9,11.8,19.9,19.9c0,3.1-0.8,6.7-3.2,9.3h38.2c-2.4-2.5-3.2-6.2-3.2-9.3
			C869.1,304.6,860.4,291,849.2,285.2z M817.4,275.2v-18.5c5.2,0,11.9,1.8,11.9,9.3C829.4,273.4,822.6,275.2,817.4,275.2z
			 M915.4,230.3h-38.2c2.4,2.5,3.2,6.2,3.2,9.3v81.5c0,3.1-0.8,6.7-3.2,9.3h38.2c-2.4-2.5-3.2-6.2-3.2-9.3v-81.5
			C912.2,236.5,913.1,232.8,915.4,230.3z M971,259.8c6.6-0.1,13.1,2.9,17.7,7.9v-39.6c-2.5,0.8-5.5,1.1-8.3,1.1
			c-3.4,0-6-1.1-10.1-1.1c-28.8,0-50.7,24-50.7,52.2s21.9,52.2,50.7,52.2c4.1,0,6.7-1.1,10.1-1.1c2.8,0,5.8,0.3,8.3,1.1V292
			c-4.6,5.6-11.1,8.7-17.7,8.7c-11.7,0-19.7-9.1-19.7-20.2C951.3,269.5,959.3,259.8,971,259.8z"/>
	</g>
</g>
</svg>
